<svg width="943" height="1099" viewBox="0 0 943 1099" fill="none" xmlns="http://www.w3.org/2000/svg">
<path d="M803.628 543.445L889.446 592.992V688.841H887.833V593.936L803.628 545.333V543.445Z" fill="#C2CED9"/>
<path d="M803.629 486.817L911.221 548.933V550.801L803.629 488.685V486.817Z" fill="#C2CED9"/>
<path d="M680.813 510.223L681.226 509.987L804.218 581.013L804.632 581.23V723.734L683.468 793.698V791.81L803.019 722.81V582.174L681.226 511.876L564.232 579.42V577.532L680.813 510.223Z" fill="#C2CED9"/>
<path d="M530.402 549.307L530.598 549.405V551.294L530.402 551.175L443.542 601.313V701.627L530.402 751.764L530.598 751.665V753.534L530.402 753.652L441.909 702.571V600.388L530.402 549.307Z" fill="#C2CED9"/>
<path d="M621.629 885.299L622.297 885.692L723.201 827.432V829.3L622.297 887.561L621.629 887.187V885.299Z" fill="#C2CED9"/>
<path d="M622.297 647.339L723.201 705.6V707.488L622.297 649.227L522.79 706.662V704.793L622.297 647.339Z" fill="#C2CED9"/>
<path d="M266.99 741.28L267.659 741.654L368.562 683.393V685.281L267.659 743.542L266.99 743.149V741.28Z" fill="#C2CED9"/>
<path d="M622.375 600.349L478.868 683.196V835.319H477.255V682.272L621.962 598.716L622.375 598.48L767.083 682.036L767.496 682.272V849.835L625.109 932.053V930.165L765.883 848.911V683.196L622.375 600.349Z" fill="#C2CED9"/>
<path d="M295.018 683.845V842.144L438.506 924.991L582.014 842.144V683.845H583.647V843.088L438.92 926.644L438.506 926.88L293.799 843.324L293.386 843.088V683.845H295.018Z" fill="#C2CED9"/>
<path d="M307.96 1014.6L449.894 1096.55L591.829 1014.6H595.015V1014.62L450.288 1098.18L449.894 1098.42L305.167 1014.86L304.754 1014.62V1014.6H307.96Z" fill="#C2CED9"/>
<path d="M348.204 804.694V697.378L245.805 638.272L143.426 697.378V804.694H141.794V696.434L245.805 636.384L349.817 696.434V804.694H348.204Z" fill="#C2CED9"/>
<path d="M244.153 921.235V923.124L124.248 853.887V852.019L244.153 921.235Z" fill="#C2CED9"/>
<path d="M245.412 589.157L245.805 588.921L375.623 663.861V665.73L245.805 590.809L124.249 660.989V659.101L245.412 589.157Z" fill="#C2CED9"/>
<path d="M452.04 536.167L530.363 490.947V404.127H531.996V491.891L452.04 538.055V536.167Z" fill="#C2CED9"/>
<path d="M398.696 729.949V820.212L477.275 865.57L477.944 865.176V867.065L477.275 867.458L397.063 821.156V729.949H398.696Z" fill="#C2CED9"/>
<path d="M372.772 963.917L451.115 1009.14L529.694 963.78V874.756H531.307V964.724L451.115 1011.03L372.772 965.786V963.917Z" fill="#C2CED9"/>
<path d="M450.603 789.588V791.456L340.907 854.792V982.033L451.115 1045.66L561.303 982.033V854.792L561.263 854.752H562.935V982.977L451.508 1047.3L451.115 1047.53L339.688 983.213L339.294 982.977V853.848L450.603 789.588Z" fill="#C2CED9"/>
<path d="M211.973 297.441V299.31L125.822 349.054V449.348L212.681 499.505L298.086 450.194V452.082L212.681 501.373L124.189 450.292V348.11L211.973 297.441Z" fill="#C2CED9"/>
<path d="M329.419 472.361V474.23L213.842 540.968L213.448 541.204L103.182 477.534V475.666L213.448 539.316L329.419 472.361Z" fill="#C2CED9"/>
<path d="M384.533 544.783L384.14 545.019L261.127 474.013L260.714 473.777V331.272L381.897 261.308V263.197L262.347 332.197V472.833L384.14 543.131L501.133 475.587V477.475L384.533 544.783Z" fill="#C2CED9"/>
<path d="M534.964 505.72L534.767 505.602V503.714L534.964 503.832L621.824 453.695V353.381L534.964 303.244L534.767 303.342V301.473L534.964 301.355L623.437 352.456V454.619L534.964 505.72Z" fill="#C2CED9"/>
<path d="M443.719 169.707L443.07 169.314L342.146 227.574V225.706L443.07 167.445L443.719 167.819V169.707Z" fill="#C2CED9"/>
<path d="M443.069 407.667L342.146 349.406V347.518L443.069 405.779L542.577 348.344V350.213L443.069 407.667Z" fill="#C2CED9"/>
<path d="M440.237 122.953V124.841L299.483 206.095V371.81L442.873 454.598V456.467L298.263 372.97L297.85 372.734V205.171L440.237 122.953Z" fill="#C2CED9"/>
<path d="M626.447 128.362L626.84 128.126L768.892 210.127V212.016L626.84 130.014L483.352 212.861V371.161H481.72V211.917L626.447 128.362Z" fill="#C2CED9"/>
<path d="M717.161 250.312V357.628L819.54 416.734V418.623L715.529 358.572V250.312H717.161Z" fill="#C2CED9"/>
<path d="M689.743 130.939V132.808L819.128 207.512L819.541 207.748L941.118 137.568V135.679L819.541 205.879L689.743 130.939Z" fill="#C2CED9"/>
<path d="M13.0769 681.229V683.117L142.462 757.822L142.875 758.058L264.452 687.858V685.989L142.875 756.169L13.0769 681.229Z" fill="#C2CED9"/>
<path d="M819.954 465.85L819.541 466.086L689.743 391.145V389.277L819.541 464.197L941.118 394.017V395.905L819.954 465.85Z" fill="#C2CED9"/>
<path d="M588.859 370.453L666.671 325.529V234.794L588.092 189.436L587.403 189.83V187.941L588.092 187.548L668.303 233.869V326.473L588.859 372.322V370.453Z" fill="#C2CED9"/>
<path d="M550.385 81.6085L628.512 36.5066L706.855 81.7462V83.6147L628.512 38.3949L550.385 83.4967V81.6085Z" fill="#C2CED9"/>
<path d="M628.512 1.88826L519.819 64.6336V62.765L628.099 0.236033L628.512 0L739.919 64.3189L740.332 64.5549V193.684L629.023 257.944V256.076L738.7 192.74V65.499L628.512 1.88826Z" fill="#C2CED9"/>
<path d="M582.408 369.936C582.408 374.361 586.002 377.936 590.408 377.936C594.833 377.936 598.408 374.342 598.408 369.936C598.408 365.511 594.813 361.936 590.408 361.936C585.983 361.917 582.408 365.511 582.408 369.936Z" fill="#C2CED9"/>
<path d="M534.414 348.201C534.414 352.627 538.008 356.201 542.414 356.201C546.839 356.201 550.414 352.607 550.414 348.201C550.414 343.796 546.82 340.201 542.414 340.201C538.008 340.182 534.414 343.776 534.414 348.201Z" fill="#C2CED9"/>
<path d="M526.606 301.33C526.606 305.755 530.2 309.33 534.606 309.33C539.031 309.33 542.606 305.736 542.606 301.33C542.606 296.905 539.011 293.33 534.606 293.33C530.2 293.311 526.606 296.905 526.606 301.33Z" fill="#C2CED9"/>
<path d="M621.372 256.051C621.372 260.476 624.967 264.051 629.372 264.051C633.797 264.051 637.372 260.457 637.372 256.051C637.372 251.626 633.778 248.051 629.372 248.051C624.967 248.032 621.372 251.626 621.372 256.051Z" fill="#C2CED9"/>
<path d="M579.929 187.405C579.929 191.83 583.523 195.405 587.929 195.405C592.354 195.405 595.929 191.811 595.929 187.405C595.929 182.999 592.335 179.405 587.929 179.405C583.523 179.405 579.929 182.98 579.929 187.405Z" fill="#C2CED9"/>
<path d="M334.003 225.564C334.003 229.989 337.597 233.564 342.003 233.564C346.428 233.564 350.003 229.969 350.003 225.564C350.003 221.138 346.409 217.564 342.003 217.564C337.578 217.544 334.003 221.138 334.003 225.564Z" fill="#C2CED9"/>
<path d="M522.652 405.367C522.652 409.871 526.31 413.51 530.795 413.51C535.299 413.51 538.938 409.851 538.938 405.367C538.938 400.862 535.28 397.223 530.795 397.223C526.31 397.204 522.652 400.862 522.652 405.367Z" fill="#C2CED9"/>
<path d="M707.386 250.17C707.386 254.595 710.981 258.17 715.386 258.17C719.812 258.17 723.386 254.576 723.386 250.17C723.386 245.745 719.792 242.17 715.386 242.17C710.961 242.151 707.386 245.745 707.386 250.17Z" fill="#C2CED9"/>
<path d="M542.223 81.4656C542.223 85.8907 545.817 89.4656 550.223 89.4656C554.629 89.4656 558.223 85.8714 558.223 81.4656C558.223 77.0405 554.629 73.4656 550.223 73.4656C545.817 73.4656 542.223 77.0598 542.223 81.4656Z" fill="#C2CED9"/>
<path d="M492.971 477.474C492.971 481.979 496.629 485.618 501.114 485.618C505.618 485.618 509.257 481.959 509.257 477.474C509.257 472.97 505.598 469.331 501.114 469.331C496.629 469.312 492.971 472.97 492.971 477.474Z" fill="#C2CED9"/>
<path d="M289.924 450.193C289.924 454.698 293.583 458.337 298.067 458.337C302.571 458.337 306.21 454.678 306.21 450.193C306.21 445.689 302.552 442.05 298.067 442.05C293.583 442.05 289.924 445.689 289.924 450.193Z" fill="#C2CED9"/>
<path d="M201.943 299.284C201.943 303.709 205.537 307.284 209.943 307.284C214.368 307.284 217.943 303.69 217.943 299.284C217.943 294.859 214.349 291.284 209.943 291.284C205.537 291.265 201.943 294.859 201.943 299.284Z" fill="#C2CED9"/>
<path d="M103.812 485.086C108.309 485.086 111.955 481.44 111.955 476.943C111.955 472.446 108.309 468.8 103.812 468.8C99.3145 468.8 95.6687 472.446 95.6687 476.943C95.6687 481.44 99.3145 485.086 103.812 485.086Z" fill="#C2CED9"/>
<path d="M517.833 751.763C517.833 758.707 523.459 764.332 530.402 764.332C537.345 764.332 542.971 758.707 542.971 751.763C542.971 744.82 537.345 739.195 530.402 739.195C523.459 739.195 517.833 744.82 517.833 751.763Z" fill="#C2CED9"/>
<path d="M756.324 209.559C756.324 216.188 761.695 221.559 768.324 221.559C774.953 221.559 780.324 216.188 780.324 209.559C780.324 202.93 774.953 197.559 768.324 197.559C761.695 197.559 756.324 202.949 756.324 209.559Z" fill="#FF8E4D"/>
<path d="M295.392 1014.61C295.392 1021.55 301.018 1027.17 307.961 1027.17C314.904 1027.17 320.53 1021.55 320.53 1014.61C320.53 1007.66 314.904 1002.04 307.961 1002.04C301.018 1002.04 295.392 1007.66 295.392 1014.61Z" fill="#C2CED9"/>
<path d="M360.931 964.527C360.931 971.47 366.556 977.096 373.499 977.096C380.443 977.096 386.068 971.47 386.068 964.527C386.068 957.584 380.443 951.958 373.499 951.958C366.556 951.958 360.931 957.584 360.931 964.527Z" fill="#C2CED9"/>
<path d="M468.188 833.49C468.188 838.82 472.495 843.128 477.826 843.128C483.156 843.128 487.464 838.82 487.464 833.49C487.464 828.16 483.156 823.852 477.826 823.852C472.495 823.852 468.188 828.179 468.188 833.49Z" fill="#C2CED9"/>
<path d="M677.175 130.371C677.175 137 682.546 142.371 689.175 142.371C695.804 142.371 701.175 137 701.175 130.371C701.175 123.741 695.804 118.371 689.175 118.371C682.546 118.371 677.175 123.741 677.175 130.371Z" fill="#FF8E4D"/>
<path d="M329.577 346.95C329.577 353.579 334.948 358.95 341.577 358.95C348.206 358.95 353.577 353.579 353.577 346.95C353.577 340.321 348.206 334.95 341.577 334.95C334.948 334.95 329.577 340.321 329.577 346.95Z" fill="#FF8E4D"/>
<path d="M427.668 122.385C427.668 129.014 433.039 134.385 439.668 134.385C446.297 134.385 451.668 129.014 451.668 122.385C451.668 115.756 446.297 110.385 439.668 110.385C433.039 110.385 427.668 115.775 427.668 122.385Z" fill="#FF8E4D"/>
<path d="M876.878 688.841C876.878 695.785 882.503 701.41 889.447 701.41C896.39 701.41 902.015 695.785 902.015 688.841C902.015 681.898 896.39 676.273 889.447 676.273C882.503 676.273 876.878 681.898 876.878 688.841Z" fill="#C2CED9"/>
<path d="M609.059 887.187C609.059 894.13 614.685 899.756 621.628 899.756C628.571 899.756 634.197 894.13 634.197 887.187C634.197 880.244 628.571 874.618 621.628 874.618C614.685 874.618 609.059 880.244 609.059 887.187Z" fill="#C2CED9"/>
<path d="M112.014 660.124C112.014 667.067 117.64 672.693 124.583 672.693C131.526 672.693 137.152 667.067 137.152 660.124C137.152 653.181 131.526 647.555 124.583 647.555C117.64 647.555 112.014 653.181 112.014 660.124Z" fill="#C2CED9"/>
<path d="M0.508789 681.23C0.508789 688.173 6.13423 693.799 13.0775 693.799C20.0208 693.799 25.6462 688.173 25.6462 681.23C25.6462 674.287 20.0208 668.661 13.0775 668.661C6.13423 668.661 0.508789 674.287 0.508789 681.23Z" fill="#C2CED9"/>
<path d="M289.846 685.478C289.846 687.838 291.773 689.766 294.133 689.766C296.494 689.766 298.421 687.838 298.421 685.478C298.421 683.118 296.494 681.19 294.133 681.19C291.753 681.19 289.846 683.118 289.846 685.478Z" fill="#C2CED9"/>
<path d="M260.164 686.5C260.164 688.861 262.092 690.788 264.452 690.788C266.812 690.788 268.74 688.861 268.74 686.5C268.74 684.14 266.812 682.212 264.452 682.212C262.072 682.212 260.164 684.12 260.164 686.5Z" fill="#C2CED9"/>
<path d="M525.504 550.448C525.504 552.808 527.432 554.736 529.792 554.736C532.152 554.736 534.08 552.808 534.08 550.448C534.08 548.088 532.152 546.16 529.792 546.16C527.432 546.16 525.504 548.088 525.504 550.448Z" fill="#C2CED9"/>
<path d="M560.791 577.71C560.791 580.07 562.719 581.998 565.079 581.998C567.439 581.998 569.367 580.07 569.367 577.71C569.367 575.349 567.439 573.422 565.079 573.422C562.699 573.422 560.791 575.349 560.791 577.71Z" fill="#C2CED9"/>
<path d="M448.184 536.699C448.184 539.059 450.111 540.987 452.472 540.987C454.832 540.987 456.759 539.059 456.759 536.699C456.759 534.338 454.832 532.411 452.472 532.411C450.092 532.411 448.184 534.319 448.184 536.699Z" fill="#C2CED9"/>
<path d="M680.695 791.968C680.695 794.328 682.623 796.256 684.983 796.256C687.344 796.256 689.271 794.328 689.271 791.968C689.271 789.608 687.344 787.68 684.983 787.68C682.623 787.68 680.695 789.608 680.695 791.968Z" fill="#C2CED9"/>
<path d="M393.778 732.606C393.778 734.966 395.706 736.894 398.066 736.894C400.426 736.894 402.354 734.966 402.354 732.606C402.354 730.245 400.426 728.318 398.066 728.318C395.706 728.318 393.778 730.245 393.778 732.606Z" fill="#C2CED9"/>
<path d="M518.62 706.072C518.62 708.432 520.547 710.36 522.908 710.36C525.268 710.36 527.195 708.432 527.195 706.072C527.195 703.712 525.268 701.784 522.908 701.784C520.547 701.784 518.62 703.692 518.62 706.072Z" fill="#C2CED9"/>
<path d="M718.913 705.599C718.913 707.96 720.841 709.887 723.201 709.887C725.561 709.887 727.489 707.96 727.489 705.599C727.489 703.239 725.561 701.312 723.201 701.312C720.841 701.312 718.913 703.239 718.913 705.599Z" fill="#C2CED9"/>
<path d="M371.316 663.861C371.316 666.222 373.243 668.149 375.604 668.149C377.964 668.149 379.892 666.222 379.892 663.861C379.892 661.501 377.964 659.573 375.604 659.573C373.243 659.573 371.316 661.501 371.316 663.861Z" fill="#C2CED9"/>
<path d="M718.618 827.884C718.618 830.244 720.546 832.172 722.906 832.172C725.266 832.172 727.194 830.244 727.194 827.884C727.194 825.524 725.266 823.596 722.906 823.596C720.546 823.596 718.618 825.524 718.618 827.884Z" fill="#C2CED9"/>
<path d="M799.341 486.817C799.341 489.178 801.268 491.105 803.629 491.105C805.989 491.105 807.917 489.178 807.917 486.817C807.917 484.457 805.989 482.529 803.629 482.529C801.249 482.529 799.341 484.457 799.341 486.817Z" fill="#C2CED9"/>
<path d="M438.584 456.468C438.584 458.828 440.512 460.756 442.872 460.756C445.233 460.756 447.16 458.828 447.16 456.468C447.16 454.108 445.233 452.18 442.872 452.18C440.512 452.18 438.584 454.108 438.584 456.468Z" fill="#C2CED9"/>
<path d="M325.132 472.361C325.132 474.721 327.06 476.649 329.42 476.649C331.78 476.649 333.708 474.721 333.708 472.361C333.708 470.001 331.78 468.073 329.42 468.073C327.04 468.073 325.132 469.981 325.132 472.361Z" fill="#C2CED9"/>
<path d="M933.506 396.063C933.506 398.423 935.434 400.351 937.794 400.351C940.155 400.351 942.082 398.423 942.082 396.063C942.082 393.702 940.155 391.775 937.794 391.775C935.434 391.775 933.506 393.683 933.506 396.063Z" fill="#C2CED9"/>
</svg>
