<?xml version="1.0" encoding="utf-8"?>
<!-- Generator: Adobe Illustrator 24.3.0, SVG Export Plug-In . SVG Version: 6.00 Build 0)  -->
<svg version="1.1" id="Layer_1" xmlns="http://www.w3.org/2000/svg" xmlns:xlink="http://www.w3.org/1999/xlink" x="0px" y="0px"
	 viewBox="0 0 762.7 493.4" style="enable-background:new 0 0 762.7 493.4;" xml:space="preserve">
<style type="text/css">
	.st0{opacity:0.15;}
	.st1{fill:#FFFFFF;}
</style>
<g class="st0">
	<path class="st1" d="M113.2,493.2l-0.4,0.2L0.4,428.5L0,428.3V298l110.8-64v1.7L1.5,298.9v128.6l111.3,64.3l107-61.8v1.7
		L113.2,493.2z"/>
	<path class="st1" d="M205.7,365.9l-92.2-53.3v-1.7l92.2,53.3l91-52.5v1.7L205.7,365.9z"/>
	<path class="st1" d="M530.5,280l-0.6-0.3L437.7,333v-1.7l92.2-53.3l0.6,0.4V280z"/>
	<path class="st1" d="M205.6,408.8l131.2-75.7V194h1.5v139.9L206,410.3l-0.4,0.2L73.3,334.1l-0.4-0.2V180.7l130.2-75.2v1.7
		L74.4,181.6v151.5L205.6,408.8z"/>
	<path class="st1" d="M504.9,332.5V187.8L373.7,112l-131.2,75.7v144.7H241V186.9l132.3-76.4l0.4-0.2L506,186.7l0.4,0.2v145.6H504.9z
		"/>
	<path class="st1" d="M456.3,222v98.1l93.6,54l93.6-54V222h1.5v99l-95.1,54.9L454.8,321v-99H456.3z"/>
	<path class="st1" d="M550.3,419.1l-0.4,0.2l-118.7-68.5v-1.7l118.7,68.5L661,353.4v1.7L550.3,419.1z"/>
	<path class="st1" d="M410.1,290.3v-82.5l-71.8-41.5l-0.6,0.4V165l0.6-0.4l73.3,42.3v83.4L410.1,290.3L410.1,290.3z"/>
	<path class="st1" d="M433.8,76.4l-71.6-41.3l-71.8,41.5V158h-1.5V75.7l73.3-42.3l71.6,41.4L433.8,76.4L433.8,76.4z"/>
	<path class="st1" d="M362.7,235.8v-1.7L463,176.2V59.9L362.2,1.7L261.5,59.9v116.3l0,0H260V59L361.8,0.2l0.4-0.2l101.9,58.8
		l0.4,0.2v118.1L362.7,235.8z"/>
	<path class="st1" d="M762.7,334.9v-1.7l-118.3-68.3l-0.4-0.2l-111.1,64.2v1.7L644,266.4L762.7,334.9z"/>
	<path class="st1" d="M127.6,181.2l0.6,0.3l92.2-53.3v1.7l-92.2,53.3l-0.6-0.4V181.2z"/>
	<path class="st1" d="M445.6,75.4c0-6.6-5.4-12-12-12s-12,5.4-12,12s5.4,12,12,12C440.3,87.4,445.6,82,445.6,75.4z"/>
	<path class="st1" d="M346.6,196.5c0-4.4-3.6-8-8-8s-8,3.6-8,8s3.6,8,8,8S346.6,200.9,346.6,196.5z"/>
	<path class="st1" d="M509.6,330.9c0-2.2-1.8-4-4-4s-4,1.8-4,4s1.8,4,4,4C507.9,334.9,509.6,333.1,509.6,330.9z"/>
	<path class="st1" d="M536.8,330.1c0-2.2-1.8-3.9-3.9-3.9s-3.9,1.8-3.9,3.9s1.8,3.9,3.9,3.9S536.8,332.2,536.8,330.1z"/>
	<path class="st1" d="M414.6,287.8c0-2.2-1.8-4-4-4s-4,1.8-4,4s1.8,4,4,4C412.8,291.8,414.6,290,414.6,287.8z"/>
	<path class="st1" d="M300.5,312.1c0-2.2-1.8-4-4-4s-4,1.8-4,4s1.8,4,4,4S300.5,314.3,300.5,312.1z"/>
	<path class="st1" d="M117.4,312.5c0-2.2-1.8-4-4-4s-4,1.8-4,4s1.8,4,4,4S117.4,314.7,117.4,312.5z"/>
	<path class="st1" d="M435.2,350.7c0-2.2-1.8-4-4-4s-4,1.8-4,4s1.8,4,4,4S435.2,352.9,435.2,350.7z"/>
	<path class="st1" d="M113.3,235.6c0-2.2-1.8-4-4-4s-4,1.8-4,4s1.8,4,4,4S113.3,237.8,113.3,235.6z"/>
	<path class="st1" d="M130.3,183.6c0-2.2-1.8-4-4-4s-4,1.8-4,4s1.8,4,4,4S130.3,185.8,130.3,183.6z"/>
</g>
</svg>
